<svg version="1.1" id="Layer_1" xmlns="http://www.w3.org/2000/svg" xmlns:xlink="http://www.w3.org/1999/xlink" x="0px" y="0px"
     viewBox="0 0 30 39" enable-background="new 0 0 30 39" xml:space="preserve">
            <g>
                <g>
                    <path fill="#fff" d="M2.6,26.2c0-0.3-0.1-0.6-0.3-0.8c-0.2-0.2-0.5-0.3-0.9-0.3c-0.2,0-0.5,0-0.6,0.1v2c0.1,0,0.3,0.1,0.5,0.1
                        c0.4,0,0.7-0.1,0.9-0.3C2.5,26.8,2.6,26.6,2.6,26.2 M3.5,26.2c0,0.5-0.2,0.9-0.5,1.2c-0.4,0.4-1,0.6-1.7,0.6c-0.2,0-0.4,0-0.5,0
                        v2.2H0v-5.6c0.3-0.1,0.8-0.1,1.4-0.1c0.7,0,1.2,0.2,1.6,0.5C3.4,25.2,3.5,25.7,3.5,26.2 M6.3,26.9c-0.1,0-0.2,0-0.2,0
                        c-0.3,0-0.6,0.1-0.8,0.4C5.1,27.5,5,27.7,5,28v2.1H4.1v-2.8c0-0.5,0-0.9,0-1.3h0.8l0,0.8h0c0.1-0.3,0.2-0.5,0.5-0.6
                        C5.6,26.1,5.8,26,6,26c0,0,0.1,0,0.2,0L6.3,26.9L6.3,26.9L6.3,26.9z M7.5,27.7c0-0.3,0.1-0.5,0.3-0.7c0.2-0.2,0.4-0.4,0.7-0.4
                        c0.3,0,0.5,0.1,0.7,0.4c0.1,0.2,0.2,0.4,0.2,0.7L7.5,27.7L7.5,27.7L7.5,27.7z M9.9,26.7C9.6,26.2,9.1,26,8.6,26
                        c-0.6,0-1.1,0.2-1.4,0.7c-0.3,0.4-0.5,0.9-0.5,1.6c0,0.6,0.2,1.1,0.5,1.5c0.4,0.4,0.9,0.5,1.5,0.5c0.5,0,1-0.1,1.4-0.2l-0.1-0.6
                        c-0.3,0.1-0.7,0.2-1.1,0.2c-0.4,0-0.7-0.1-0.9-0.3c-0.2-0.2-0.4-0.5-0.4-0.9h2.7c0-0.1,0-0.2,0-0.4C10.2,27.4,10.1,27,9.9,26.7
                         M16.6,30.2h-0.9v-2.3c0-0.8-0.2-1.1-0.7-1.1c-0.2,0-0.4,0.1-0.5,0.3c-0.2,0.2-0.2,0.4-0.2,0.6v2.5h-0.9v-2.4
                        c0-0.3-0.1-0.5-0.2-0.7c-0.1-0.2-0.3-0.3-0.5-0.3s-0.5,0.1-0.6,0.3c-0.2,0.2-0.2,0.4-0.2,0.7v2.4h-0.9v-2.9c0-0.4,0-0.8,0-1.2h0.8
                        l0.1,0.6h0c0.3-0.5,0.7-0.7,1.2-0.7s0.9,0.2,1.1,0.8l0,0c0.1-0.2,0.3-0.4,0.5-0.5c0.2-0.2,0.5-0.2,0.7-0.2c0.4,0,0.7,0.1,0.9,0.4
                        c0.3,0.3,0.4,0.8,0.4,1.4L16.6,30.2L16.6,30.2z M18.7,30.2h-0.9v-4.1h0.9V30.2z M18.8,24.9c0,0.2-0.1,0.3-0.2,0.4
                        c-0.1,0.1-0.2,0.2-0.4,0.2c-0.2,0-0.3-0.1-0.4-0.2c-0.1-0.1-0.2-0.2-0.2-0.4c0-0.2,0.1-0.3,0.2-0.4c0.1-0.1,0.2-0.2,0.4-0.2
                        c0.2,0,0.3,0.1,0.4,0.2C18.7,24.6,18.8,24.7,18.8,24.9 M23.2,30.2h-0.8l-0.1-0.6l0,0c-0.3,0.5-0.7,0.7-1.3,0.7
                        c-0.4,0-0.8-0.1-1-0.4c-0.3-0.3-0.4-0.8-0.4-1.4v-2.4h0.9v2.2c0,0.8,0.3,1.2,0.8,1.2c0.4,0,0.7-0.2,0.9-0.6c0-0.1,0.1-0.2,0.1-0.3
                        v-2.5h0.9V29C23.2,29.4,23.2,29.8,23.2,30.2 M29.9,30.2h-0.9v-2.3c0-0.8-0.2-1.1-0.8-1.1c-0.2,0-0.4,0.1-0.6,0.3
                        c-0.2,0.2-0.2,0.4-0.2,0.6v2.5h-0.9v-2.4c0-0.3-0.1-0.5-0.2-0.7c-0.1-0.2-0.3-0.3-0.5-0.3c-0.2,0-0.5,0.1-0.6,0.3
                        c-0.2,0.2-0.2,0.4-0.2,0.7v2.4h-0.9v-2.9c0-0.4,0-0.8,0-1.2h0.8l0,0.6h0c0.2-0.5,0.6-0.7,1.2-0.7s0.9,0.2,1.1,0.8l0,0
                        c0.1-0.2,0.3-0.4,0.5-0.5c0.2-0.2,0.5-0.2,0.8-0.2c0.4,0,0.7,0.1,0.9,0.4c0.3,0.3,0.4,0.8,0.4,1.4v2.4
                        C29.8,30.2,29.9,30.2,29.9,30.2z M4.7,34.9c0-0.6-0.4-1-1.2-1c-0.3,0-0.5,0-0.6,0.1v1.9h0.6c0.4,0,0.6-0.1,0.9-0.3
                        C4.6,35.5,4.7,35.2,4.7,34.9 M5.8,39h-1c-0.1-0.2-0.2-0.6-0.4-1.3c-0.1-0.4-0.2-0.7-0.4-0.8c-0.2-0.2-0.4-0.2-0.7-0.2H2.9V39H1.9
                        v-5.6c0.4-0.1,0.9-0.1,1.4-0.1c0.8,0,1.3,0.2,1.7,0.5c0.3,0.3,0.5,0.6,0.5,1.1c0,0.3-0.1,0.7-0.3,0.9c-0.2,0.2-0.4,0.4-0.7,0.5v0
                        c0.4,0.2,0.7,0.5,0.8,1.1c0.1,0.5,0.2,0.8,0.2,1C5.7,38.7,5.8,38.9,5.8,39 M8.9,36.5c0-0.3-0.1-0.5-0.2-0.7
                        c-0.2-0.2-0.4-0.4-0.7-0.4c-0.3,0-0.5,0.1-0.7,0.4C7.1,36,7.1,36.2,7,36.5H8.9z M9.8,36.7c0,0.2,0,0.3,0,0.4H7
                        c0,0.4,0.2,0.7,0.4,0.9c0.2,0.2,0.5,0.3,0.9,0.3c0.4,0,0.8-0.1,1.1-0.2l0.1,0.6C9.1,38.9,8.7,39,8.2,39c-0.6,0-1.1-0.2-1.5-0.5
                        c-0.4-0.4-0.5-0.9-0.5-1.5s0.2-1.1,0.5-1.6C7,35,7.5,34.8,8.1,34.8c0.6,0,1,0.2,1.3,0.7C9.6,35.8,9.8,36.2,9.8,36.7 M13.1,37.8
                        c0,0.4-0.2,0.7-0.4,0.9C12.4,39,12,39,11.5,39c-0.5,0-0.9-0.1-1.2-0.3l0.2-0.7c0.3,0.2,0.6,0.3,1,0.3c0.5,0,0.7-0.2,0.7-0.5
                        c0-0.2-0.1-0.3-0.2-0.4s-0.3-0.2-0.5-0.3c-0.7-0.3-1.1-0.6-1.1-1.2c0-0.3,0.2-0.6,0.4-0.9c0.3-0.2,0.6-0.3,1.1-0.3
                        c0.4,0,0.7,0.1,1,0.2l-0.2,0.6c-0.3-0.2-0.5-0.2-0.8-0.2c-0.2,0-0.3,0.1-0.5,0.1c-0.1,0.1-0.2,0.2-0.2,0.3c0,0.2,0.1,0.2,0.2,0.3
                        c0.1,0.1,0.3,0.2,0.5,0.3C12.7,36.8,13.1,37.2,13.1,37.8 M16.3,36.5c0-0.3-0.1-0.5-0.2-0.7c-0.2-0.2-0.4-0.4-0.7-0.4
                        c-0.3,0-0.4,0.1-0.6,0.4c-0.2,0.2-0.2,0.4-0.3,0.7H16.3z M17.2,36.7c0,0.2,0,0.3,0,0.4h-2.6c0,0.4,0.2,0.7,0.4,0.9
                        c0.2,0.2,0.4,0.3,0.8,0.3c0.4,0,0.8-0.1,1.1-0.2l0.2,0.6c-0.4,0.2-0.9,0.2-1.4,0.2c-0.5,0-1-0.2-1.4-0.5c-0.4-0.4-0.5-0.9-0.5-1.5
                        s0.2-1.1,0.5-1.6c0.4-0.5,0.9-0.7,1.3-0.7c0.6,0,1,0.2,1.3,0.7C17,35.8,17.2,36.2,17.2,36.7 M18.9,33V39H18V33H18.9z M20.8,33V39
                        h-0.9V33H20.8z M24.5,36.5c0-0.3-0.1-0.5-0.2-0.7c-0.2-0.2-0.4-0.4-0.7-0.4c-0.3,0-0.5,0.1-0.7,0.4c-0.2,0.2-0.2,0.4-0.3,0.7H24.5
                        z M25.3,36.7c0,0.2,0,0.3,0,0.4h-2.7c0,0.4,0.2,0.7,0.4,0.9c0.2,0.2,0.5,0.3,0.9,0.3c0.4,0,0.8-0.1,1.1-0.2l0.1,0.6
                        c-0.3,0.2-0.8,0.2-1.3,0.2c-0.6,0-1.2-0.2-1.5-0.5c-0.4-0.4-0.5-0.9-0.5-1.5s0.2-1.1,0.5-1.6c0.4-0.5,0.8-0.7,1.4-0.7
                        c0.6,0,1,0.2,1.3,0.7C25.1,35.8,25.3,36.2,25.3,36.7 M28.3,35.7c-0.1,0-0.2,0-0.3,0c-0.3,0-0.5,0.1-0.7,0.4
                        c-0.2,0.2-0.2,0.5-0.2,0.8V39h-0.9v-2.8c0-0.5,0-0.9,0-1.3h0.8l0,0.8h0c0.1-0.3,0.2-0.5,0.5-0.6c0.2-0.2,0.4-0.2,0.6-0.2
                        c0.1,0,0.2,0,0.2,0L28.3,35.7L28.3,35.7z"/>
                  <g>
                        <g>
                            <path fill="#fff" d="M17.7,3.1c0.7-0.8,1.2-2,1-3.1c-1,0-2.2,0.6-2.8,1.5c-0.7,0.7-1.1,1.9-0.9,3C15.9,4.6,17,4,17.7,3.1"/>
                          <path fill="#fff" d="M22.8,14.1c0,0.1-0.4,1.4-1.3,2.8c-0.8,1.2-1.7,2.4-3,2.4c-1.3,0-1.8-0.8-3.2-0.8
                                c-1.4,0-1.8,0.7-3.1,0.8c-1.3,0.1-2.2-1.2-3.1-2.5c-1.7-2.4-2.9-6.8-1.2-9.6c0.9-1.5,2.4-2.4,4-2.4c1.3,0,2.4,0.8,3.2,0.8
                                c0.7,0,2.1-1.1,3.7-0.9c0.6,0,2.4,0.3,3.5,1.9c-0.1,0.1-2.1,1.2-2.1,3.6C20.1,13.2,22.7,14.1,22.8,14.1"/>
                        </g>
                    </g>
                </g>
            </g>
            </svg>
